<?xml version="1.0" standalone="no"?>
<!DOCTYPE svg PUBLIC "-//W3C//DTD SVG 20010904//EN"
 "http://www.w3.org/TR/2001/REC-SVG-20010904/DTD/svg10.dtd">
<svg version="1.0" xmlns="http://www.w3.org/2000/svg"
 width="150.000000pt" height="150.000000pt" viewBox="0 0 150.000000 150.000000"
 preserveAspectRatio="xMidYMid meet">

<g transform="translate(0.000000,150.000000) scale(0.100000,-0.100000)"
fill="#000000" stroke="none">
<path d="M105 1481 c-48 -22 -69 -44 -90 -94 -13 -31 -15 -119 -15 -639 0
-564 2 -606 19 -643 22 -48 44 -69 94 -90 31 -13 119 -15 639 -15 564 0 606 2
643 19 48 22 69 44 90 94 23 55 23 1219 0 1274 -21 50 -42 72 -90 94 -37 17
-79 19 -645 19 -566 0 -608 -2 -645 -19z m315 -539 l195 -78 3 -46 3 -46 -194
-76 c-106 -42 -198 -76 -205 -76 -8 0 -12 17 -12 44 l0 45 54 20 c29 11 95 34
145 52 51 17 88 35 84 39 -4 4 -70 29 -145 56 l-138 49 0 47 c0 27 4 48 8 48
4 0 95 -35 202 -78z m768 6 c17 -17 17 -439 0 -456 -15 -15 -271 -17 -299 -2
-18 10 -19 23 -19 230 0 198 2 220 18 229 25 15 285 14 300 -1z"/>
</g>
</svg>
